<svg id="Слой_1" data-name="Слой 1" xmlns="http://www.w3.org/2000/svg" viewBox="0 0 608.22 127.34"><defs><style>.cls-1{fill:#f92d1f;}.cls-1,.cls-2,.cls-3{fill-rule:evenodd;}.cls-2{fill:#3c3b40;}.cls-3{fill:#fff;}</style></defs><title>logotype</title><path class="cls-1" d="M780.08,331,778.91,444.7l30.51-9.54-.83-21,33.34-10.43a41.86,41.86,0,0,1,2.81,4.4l8.38,13.18,22.52-7,0,30.79,28.82,0V412.8c0-3.45-.17-7.35.08-10.75,1-13.83,12.06-15.36,22.92-14.46,1.37.11,3.72.62,4.8.58l.46-4.8h2.66c.32,3.28.05,24.44.05,29.63,0,9.78.11,17.66,4.91,24.71,3.9,5.74,11,8.72,20.69,9a56.41,56.41,0,0,0,19.7-2.54c1.9-.63,3.72-1.46,5.46-2l0-21.07c-4.4.91-7,2.69-13.45,2.81-5.61.1-8.21-2.51-8.29-8s0-10.86,0-16.27c0-5.08-.31-11.22,0-16.17l20.45-.05V361.75l-20.45,0,0-16.7-19,0c-.34,1.4-5.75,13.7-6.79,16.26a3.36,3.36,0,0,1-1.73,2.13,11.68,11.68,0,0,1-2.5,1.59l.31-3.9c-7.89-1.42-13.67-1.32-19.91,2.15a28.77,28.77,0,0,0-9.64,8.24c-.45.61-.83,1.14-1.24,1.81s-1,2.09-2.15,1.74c-.58-.17-3.07-8.35-3.64-10-.25-.72-.69-3.1-1.43-3.29H875.67v39.07c-1.21-1.09-46.76-65.05-51.17-71.15-1.24-1.71-2.4-3.29-3.67-5.08s-2.32-3.46-3.67-5.09c-1.51,0-15.86,4.82-18.54,5.66C792.38,327.1,786.22,329,780.08,331Z" transform="translate(-378.02 -319.49)"/><path class="cls-2" d="M585.35,445.34H608l4.51-8.22c1.59,0,1.48-.2,2.34.69,4,4.12,6,6,12,7.88a32.11,32.11,0,0,0,19.85-1,22,22,0,0,0,3.73-1.95,28.76,28.76,0,0,0,6-5.36,40.48,40.48,0,0,0,7.47-15.28,45.67,45.67,0,0,1,1.16-4.74,43.42,43.42,0,0,0,3.64,9.8,32.17,32.17,0,0,0,5.81,7.8c11.36,11.36,26.64,12.78,42.7,11.47,6.76-.56,15.83-2.24,21.68-5.78.35-1.77.31-18.72,0-20.89-2,.74-3.83,1.68-5.88,2.42a65.77,65.77,0,0,1-6.29,2,57.16,57.16,0,0,1-15.06,1.8c-5.25,0-9.85-.8-13.15-3.5a13.07,13.07,0,0,1-3.88-4.45c-1.27-2.43-1.42-3.81-1.82-6.63l51.47,0c0-9.84,1-22.45-3.35-31.52-.29-.62-.45-1.08-.74-1.69a36.15,36.15,0,0,0-5.26-7.34c-5.57-5.55-11.76-8.47-20.14-9.93-12.94-2.24-27.32,0-36.51,6.92l-5.09,4.86a36.05,36.05,0,0,0-7.08,13c-.42,1.33-.69,2.86-1.13,3.95a44.45,44.45,0,0,0-2.42-9.25c-2.8-7.88-8.27-15.48-16.54-18.62a29.8,29.8,0,0,0-19.94.14A25.23,25.23,0,0,0,615,371.09c-.6.9-.38,1.36-1.76,1.26.31-1.07.64-7.87.82-9.69.29-2.88.43-29.17.2-32.14H585.38Z" transform="translate(-378.02 -319.49)"/><path class="cls-2" d="M378.08,445.19H404c0-23.17.66-55.46-1.52-77.52.87.14.42-.24.77.73.11.31.21.87.33,1.28l.67,2.37c.5,1.7.9,3.24,1.39,4.94l19.09,67.26c.19.65.07.94.76.94,4.51,0,24.58.18,27.43-.07l5.45-19.33c3.4-12.76,7.36-25.93,10.88-38.72l5.34-18.85c.39-.51-.05-.16.53-.39,0,3.21-.41,6.41-.46,9.39l-.6,28.87q0,19.62,0,39.25h.81c4.92,0,22.36.19,26.15-.06V337.6c-1.68-.21-38.54-.13-38.75-.08-.63.16-.62,1-.94,2.19-.21.76-.49,1.63-.69,2.35-4.82,17.44-10.43,35.32-15.18,52.69l-4.82,16.73c-.13.49-.2.72-.35,1.27-.25.9,0,.73-.57,1.07-.65-.4-.3-.26-.88-2.18l-21.11-71.76c-.49-1.6-.29-2.36-1.37-2.36H378Z" transform="translate(-378.02 -319.49)"/><path class="cls-2" d="M543.5,446.71c11.28,0,18.89.33,29.89-3.61a29.15,29.15,0,0,0,5.55-2.56V419.83c-.53,0-4.38,1.75-5.23,2.08-5.25,2.06-13,4.09-18.84,4.09-4.84,0-7.58.37-12.32-1.28a14.11,14.11,0,0,1-8.22-7.22c-1.07-2.18-1.09-3.58-1.53-6l51.48-.08c0-5.39,0-10.73,0-16.07a39.66,39.66,0,0,0-5.17-19,17.58,17.58,0,0,0-1.59-2.46l-1.79-2.29c-9-9.83-23.28-12.46-36.87-11.19a40.73,40.73,0,0,0-18.31,5.86,30,30,0,0,0-4.6,3.53l-3.8,4.13a32.29,32.29,0,0,0-3.21,4.91A45.41,45.41,0,0,0,504.77,391c-1.83,9-1.57,20.25.89,28.8a36.33,36.33,0,0,0,6.94,13.17,41.53,41.53,0,0,0,6.28,5.91,40.54,40.54,0,0,0,10.86,5.4,53.63,53.63,0,0,0,13.76,2.46" transform="translate(-378.02 -319.49)"/><path class="cls-2" d="M745.56,445.34c3.36-.53,10.43-.15,14.31-.15H774.5V330.52H745.61Z" transform="translate(-378.02 -319.49)"/><path class="cls-3" d="M624.77,423.41c2.55,0,5.09,0,7.22-2.37a15.13,15.13,0,0,0,2.77-4.74,43,43,0,0,0,1.92-13.06c.16-5.77-.8-13.82-4.73-17.75-2.61-2.61-4.29-2.43-7.59-2.43-4,0-7.13,3-8.57,6.74-2.23,5.73-2,21.21.24,27.07a10.23,10.23,0,0,0,3.06,4.46,10.41,10.41,0,0,0,5.68,2.08" transform="translate(-378.02 -319.49)"/><path class="cls-3" d="M825.85,377.69c-6-9.26-13.06-20.59-18.67-30.11a53.63,53.63,0,0,0-3-5.09c.06,3.42.74,7.8,1,11.37,1,11.66,1.36,23.88,2,35.61.55.12,20.76-6.09,21.75-6.75A48.53,48.53,0,0,0,825.85,377.69Z" transform="translate(-378.02 -319.49)"/><path class="cls-3" d="M693.48,393.06h24.67c-.32-3.46-.91-6.32-2.9-8.77a8.84,8.84,0,0,0-3.12-2.78,12.61,12.61,0,0,0-15.49,2.6c-2.18,2.53-2.53,5.27-3.16,9" transform="translate(-378.02 -319.49)"/><path class="cls-3" d="M533.42,393l24.67.09c-.62-7.58-4-13.09-12.36-13.1a11.21,11.21,0,0,0-8.87,3.79c-2.61,2.82-2.62,5.29-3.44,9.22" transform="translate(-378.02 -319.49)"/></svg>